<?xml version="1.0" encoding="utf-8"?>
<!-- Generator: Adobe Illustrator 24.0.0, SVG Export Plug-In . SVG Version: 6.00 Build 0)  -->
<svg version="1.1" id="Capa_1" xmlns="http://www.w3.org/2000/svg" xmlns:xlink="http://www.w3.org/1999/xlink" x="0px" y="0px"
	 viewBox="0 0 226 218" style="enable-background:new 0 0 226 218;" xml:space="preserve">
<style type="text/css">
	.st0{fill:#4D6F94;}
	.st1{fill:#6393CE;}
	.st2{fill:#E8E9EB;}
	.st3{fill:#A8A39D;}
	.st4{fill:#6E553F;}
	.st5{fill:#DDCCA0;}
	.st6{fill:#A6926F;}
	.st7{fill:#8F755C;}
	.st8{fill:#2B2D2C;}
	.st9{fill:none;stroke:#000000;stroke-miterlimit:10;}
	.st10{fill:#FFFFFF;}
	.st11{fill:#C3473B;}
	.st12{fill:none;stroke:#000000;stroke-width:0.5;stroke-miterlimit:10;}
	.st13{fill:#6E6480;}
	.st14{fill:#947ABD;}
	.st15{fill:#4C713B;}
	.st16{fill:#E3BF99;}
	.st17{fill:#AC8669;}
	.st18{fill:#689358;}
</style>
<g>
	<g>
		<path class="st0" d="M111.5,182.8c3.9,3.5,7.8,6.1,11.8,6.5c1.1,1.2,2.4,2.5,3.4,3.9c1.5-2.4,3-3.3,4.7-3.9
			c4.1,1.2,7.1,3.2,8.3,6.7h2c1.7-3.7,4.7-6.7,10.6-8l1.8,1.4c1.1-2.1,1.9-4.9,2-8.5c1.6-2,2.1-6.3,2.6-10.6
			c-3-9.7-10.1-15.9-18.5-21C134.7,164.4,125.3,175.8,111.5,182.8z"/>
		<path class="st1" d="M156.2,180.9c1.6-2,2.1-6.3,2.6-10.6c-3-9.7-10.1-15.9-18.5-21c-3,8.1-7.1,15.1-12.4,21
			c-2.3,2.6,10.4,3.9,7.8,7.6C131.3,184.4,156.1,182.7,156.2,180.9z"/>
		<path class="st0" d="M36,191.2c-0.8-2.1-0.8-4.1,0-6c-2.1-4.2-3.2-9.8-2-19.5c0.2-3.3,1.6-6.4,3.4-9.4
			c11.7-5.4,17.6-11.9,19.6-19.2c21.7,2.8,29.6,19,30.3,42c-1.8,4.2-4.5,7.8-8.5,10.2c-1.8,6-5.3,10-9.4,13.4
			c-3.2-5.7-7-9.5-12.2-9.9c-6.6,1.1-11.9,3.6-15,8.2C41.2,197.7,39.2,194.5,36,191.2z"/>
		<path class="st1" d="M37.5,156.4c11.7-5.4,17.6-11.9,19.6-19.2c21.7,2.8,29.6,19,30.3,42C68.7,192.7,33.3,179.5,37.5,156.4z"/>
		<path class="st0" d="M31.9,164.2c-5.6,3-11.9,5.1-18.9,6.4c-1.7,5.4,13,14.9,23,14.7c-2.6-6.4-3.2-12.9-2-19.5L31.9,164.2z"/>
		<path class="st2" d="M59.8,128.1l-2.7,9.1c-1.9,7.6-8.3,14-19.6,19.2c-2.1,3.3-3.1,6.3-3.4,9.4l-2.1-1.6
			c-3.9-2.8-6.7-6.3-8.7-10.5c3.9-4.4,8.5-8.3,14.3-11.1c4.2-3.6,7.2-8,9-13.3C50.7,129.8,55.1,129.4,59.8,128.1z"/>
		<path class="st3" d="M59.8,128.1l-2.7,9.1c-1.9,7.6-8.3,14-19.6,19.2c-2.1,3.3-3.1,6.3-3.4,9.4l-2.1-1.6c-0.6-0.4-1.1-0.8-1.6-1.3
			c-3-2.6-2.2-14.2,0.6-16.3c2-1.5,4.2-2.8,6.6-3.9c4.2-3.6,7.2-8,9-13.3C50.7,129.8,55.1,129.4,59.8,128.1z"/>
		<path class="st4" d="M34.3,124.4c3.6,3,7.6,4.9,12.3,5c-1.6,5.1-4.8,9.5-9,13.3c-2.1,1.1-3.7,2-4.7,2.7
			C31.4,138.3,31.9,131.3,34.3,124.4z"/>
		<path class="st5" d="M81.7,187.3c11.5,1.4,22,0.9,29.8-4.4c12.4-6.2,22.3-16.7,28.7-33.6c5.2-14,3-28.6-3.7-43.7
			c-3.6,0.6-7.2,0.4-10.9-0.6c-13.5-1.1-21.2-8.3-24-20.5c-0.6,2.3-1.2,4.5-1.6,6.2c-0.9,1.1-1.9,1.6-2.7,1.6
			c-1.8,4.8-4.5,8.3-9.6,8.7c0,9.8-5.6,15.9-16.2,18.8c-2.8,4.7-6.5,7.8-11.6,8.5l-2.7,9.1c19.3,2.7,29.9,16,30.3,42
			C86.3,181.9,84.3,184.6,81.7,187.3z"/>
		<path class="st6" d="M131,105.9c-1.8-0.1-3.5-0.4-5.2-0.9c-13.5-1.1-21.2-8.3-24-20.5c-0.6,2.3-1.2,4.5-1.6,6.2
			c-0.9,1.1-1.9,1.6-2.7,1.6c-1.8,4.8-4.5,8.3-9.6,8.7c0,9.8-5.6,15.9-16.2,18.8c-2.8,4.7-6.5,7.8-11.6,8.5l-2.7,9.1
			c7.5,1.1,13.7,3.7,18.4,8.1c3.3,3-4.8-18.6,6.7-27.5c6.2-4.8,22.6,2.7,29.5,3C125.7,121.4,131.6,105.9,131,105.9z"/>
		<path class="st6" d="M81.7,187.3c11.5,1.4,22,0.9,29.8-4.4c9.4-4.7,17.5-11.9,23.6-22.6c-25.8,8.7-47.8-1.8-58-13.3
			c6.4,7,9.9,17.6,10.2,32.2C86.3,181.9,84.3,184.6,81.7,187.3z"/>
		<path class="st1" d="M140.9,117.3l3.4,4.6c1.3-5.6,4.4-10.6,9-15c2,3.5,5,5.9,8.7,7.5c0,20.9-7.1,35.5-11,33.4l-8.7-5.9
			C143.9,133.7,143.3,125.5,140.9,117.3z"/>
		<path class="st0" d="M140.9,117.3l3.4,4.6c0.1-0.6,0.3-1.1,0.4-1.7c3.5,2.9,11.8,4.3,16.9,2.2c-1,11.5-4.2,20.2-7.1,23.8
			c-7.3-5.6-6.4-2.1-11.9-6.1C143.7,132.5,143.1,124.9,140.9,117.3z"/>
		<path class="st2" d="M157.2,99.9c2.9,8.8,16,10.5,20.6,2.2c2.6,1.5,4.3,3.3,4.6,5.7c-0.6,3.3-10.6,5.2-10.3,7.1
			c-1,27.5-17.7,40.6-21.2,32.9c5.1,2.2,11.6-17.5,11-33.4c-3.9-1.7-6.9-4.1-8.7-7.5C152.3,105.1,153.8,102.7,157.2,99.9z"/>
		<path class="st3" d="M171.3,123.4c-3.6,21.7-17.2,31.3-20.3,24.4c4.2,1.8,9.5-11.7,10.7-25.5C163.6,127.2,169.3,127.6,171.3,123.4
			z"/>
		<path class="st7" d="M191.3,106.9l3.2,8.1c-0.5,8.8-3.7,16.7-9,23.9c-3,2-7.1,2.8-11.6,3c-4.4,4.7-9.7,6.1-15.4,6.4
			c7.3-5.9,12.5-15.9,13.6-33.4c0.2-1.4,3.9-2.3,8.7-5.1l1.1,4.3c3.1,0.2,5.9,0.1,8.1-0.8c0.1-1.9-0.2-3.5-1-4.9L191.3,106.9z"/>
		<path class="st4" d="M192.2,126.5c-1.5,4.4-3.8,8.5-6.7,12.4c-3,2-7.1,2.8-11.6,3c-4.4,4.7-9.7,6.1-15.4,6.4
			c6-4.9,10.6-12.4,12.6-24.7c6.7,3.1,10.2-1.1,10.2-1.1S185.6,126.3,192.2,126.5z"/>
		<path class="st1" d="M157.2,99.9c1.5-2.1,3.8-4,6.8-5.7c7.1,0,11.4,3,13.9,8C173.5,110.4,160.1,108.5,157.2,99.9z"/>
		<path class="st2" d="M176.1,87c2.3-6.4,17.9-6.1,19.5,0c-0.2,7.8-2.2,18.6-4.3,19.8l-2.2,1.5l-1.5,5.6c-1.6,0.3-3.5,0.3-5.7,0.2
			l-1.1-4.3c0.9-0.6,1.4-1.3,1.6-2c-0.3-2.7-2.3-4.4-4.6-5.7c-0.6-1.1-1.2-2.1-1.8-2.8L176.1,87L176.1,87z"/>
		<path class="st2" d="M26.9,116.6l7.4,7.7c3.7,3.1,7.8,4.9,12.3,5c4.4,0.4,8.8,0,13.2-1.3c5.7-0.8,9.1-4.2,11.6-8.5l6.6-14.3
			l6.1-4.6c-3.3,0.8-6.3,0.8-8.7-0.4c-1.8,2.5-4,4.2-6.6,5.2C64.5,120.4,45.5,128.9,26.9,116.6z"/>
		<path class="st3" d="M59.8,128.1c5.7-1.2,9.1-4.2,11.6-8.5l6.6-14.3l6.1-4.6c-3.3,0.8-6.3,0.8-8.7-0.4c-1.8,2.5-4,4.2-6.6,5.2
			c-2.7,9.4-11.2,16.2-21.7,16.9C58.9,123.2,56.3,126,59.8,128.1z"/>
		<path class="st4" d="M24.4,113.8c11,2.4,20.7,1.8,27.7-4.4c7.2,0.2,13-0.8,16.6-3.9c-6.3,18-26.3,21.7-41.8,11.1
			C25.9,115.9,25.3,114.7,24.4,113.8z"/>
		<path class="st4" d="M43.7,82.2c-6.3-0.5-12.1-0.3-17.1,1.5c-4.6,3.8-8.2,7.6-9.5,11.1c-1.1,6.4-0.5,12,2.5,16.2
			c1.4,1.3,3,2.2,4.8,2.7c11.5,2.5,21,1.6,27.7-4.4c-3-1-5.4-2-7.1-3c-2.2,1.6-5.6,2.5-8.8,3c-6.6-5.6-6.8-14.7-4.3-21.5
			c2.9-1.8,6.1-2.3,9.4-2C41.4,84.8,42.4,83.6,43.7,82.2z"/>
		<path class="st7" d="M26.6,83.8c-3.2,6.6-3.5,13.8-1.8,21.2c-4.9-1.1-7.6-4.4-7.6-10C19.2,90.6,22.5,86.9,26.6,83.8z"/>
		<path class="st8" d="M41.2,85.8c-3.3-0.6-6.4,0.3-9.4,2c-2.7,8.6-1.8,15.9,4.3,21.5c3.5-0.4,6.5-1.3,8.8-3
			C34.4,101.8,32.5,95.1,41.2,85.8z"/>
		<path class="st2" d="M41.2,85.8c-8.5,8.7-7.2,15.5,3.8,20.5C39.3,100.6,38.1,93.7,41.2,85.8z"/>
		<path class="st2" d="M43.7,82.2c5.7-4.1,11.8-6.6,18.3-6.8c13.3,2.4,18.6,10.2,13.5,25c-1.6,2.4-3.8,4.2-6.6,5.2
			c-3.9,3-9.5,4.2-16.6,3.9c-3-1-5.4-2-7.1-3c-5.4-5.6-7-12.4-3.8-20.5L43.7,82.2z"/>
		<path class="st4" d="M26.6,83.8c7.6-9.5,17.7-11.8,29.7-7.6c-4.9,1.4-9.2,3.3-12.6,6.1C37.1,81.5,31.5,82.2,26.6,83.8z"/>
		<path class="st2" d="M65.9,76.4c0.3-1.5,2-3.1,4.9-4.7c-1.9-0.2-3.7,0-5.2,0.6c-15.7-8.7-26.3-3.4-35,7.4
			c6.8-5.7,15.2-7.1,25.8-3.5c1.8-0.4,3.7-0.7,5.6-0.8C63.2,75.6,64.5,75.9,65.9,76.4z"/>
		<path class="st1" d="M81.2,72.8c-2.8-2.8-6.5-2.5-10.5-1.3c-2.5,1.3-4,2.9-4.9,4.7c9.9,3.4,14.5,10.4,9.5,24
			c3.1,1.3,5.9,1.2,8.7,0.4c-2-0.6-2.7-1.4-2.9-2.3c0.4-4.5,3.7-6.8,8.7-7.6c1.3-4.4,0.6-7.3-1.5-9.4c-2.1,3.8-5.6,4.5-10.5,2.3
			C74.8,79.5,76.6,75.9,81.2,72.8z"/>
		<path class="st7" d="M70.8,71.6c-1.9-0.1-3.7,0-5.2,0.6c-5.2-2.8-9.9-4.2-14.2-4.3C58,53.6,70,41.6,86,31.4
			c11.1-1.1,21.6-1.4,31,0c0.5,0.6,0.6,1.2,0.4,1.8c-2.5,1.8-4.9,3.5-5.7,5.2c-1.3,0.2-2.3,0.5-3,1c-2.8,0.2-5.2,0.9-7.5,2
			C98,41,95,40.8,92.4,41.7c-1.7,4.9-1.8,13.3-1.3,21.9c-1.7-0.1-3.3,0.3-4.9,1c0.1-0.4,0.3-0.8,0.4-1.3
			C78.9,63.3,74.7,67.2,70.8,71.6z"/>
		<path class="st9" d="M81.2,72.8c3.7-1.3,7.3-1.8,11.1-0.7c0.8-1.6,2.4-3.2,4.3-4.8c-1-0.9-1.8-1.8-2-2.7c0.2-0.4,0.7-0.7,1.4-0.8
			h-5c-1.7-0.1-3.3,0.3-4.9,1C85.8,67.5,84,70.2,81.2,72.8z"/>
		<path class="st4" d="M83.4,41c-1.6,0.2-3.2,0.6-3.7,2.1c0.8,2.9,0.3,4.9-1.6,6.1c-2.2-0.8-3.7,0.3-4.7,3c1.5,3.2-0.4,5.4-2.7,7.5
			c2,2.3,3.8,3.3,5.3,1.2c1.8-2.3,2.8-1.6,3,2c0.3,0.8,0.9,0.9,1.8,0.4C80.7,55.6,81.5,48.2,83.4,41z"/>
		<path class="st4" d="M81,57.3l-0.1,5.9v0.9c2.3-0.6,4.2-0.8,5.6-0.6L86,64.9c1.5-0.6,3.1-1.1,4.9-1c-0.3-4.5-0.1-13.1-0.1-13.1
			L81,57.3z"/>
		<path class="st8" d="M61.5,79c6.9-0.4,11.1,2.5,12.9,8.4c1.2,8.8-2,14.3-10.6,15.6c-7.5-0.4-11.1-4.4-11.6-11.4
			C52,85.3,54.6,80.5,61.5,79z"/>
		<path class="st2" d="M96.6,67.4l7.7,9.7l-2.7,7.3l-1.6,6.2c-0.8,1.1-1.8,1.5-2.7,1.6l0.3-3.1l-7.7,1.8c1.2-3.7,0.8-6.8-1.5-9.4
			l7.4-7.7l-3.4-1.6C93.2,70.6,94.6,69,96.6,67.4z"/>
		<path class="st8" d="M178.8,86.5c0.8-1.2,2.7-2.1,7.1-2.1c4.5,0.1,6.6,1.1,7.5,2.5c-1.5,1.4-3.2,2.3-7.3,1.9
			C181.6,88.6,179.2,87.8,178.8,86.5z"/>
		<path class="st3" d="M177.8,102.1c4.7,0.7,5.1-4.1,3.2-12c3.8,1.3,7.3,1.4,10.7,0c1.1,17.3-6.9,14.6-7,19.3c1.3,1.3,2.8,1.3,4.3-1
			l-1.5,5.6c-1.6,0.3-3.5,0.3-5.7,0.2l-1.1-4.3c0.9-0.6,1.4-1.3,1.6-2C182.2,105.6,180.6,103.7,177.8,102.1z"/>
		<path class="st9" d="M189.1,108.5c0.7,1.3,1.1,3,1,4.9c-0.8,0.3-1.6,0.5-2.5,0.6L189.1,108.5z"/>
		<path class="st1" d="M125.7,105c-7.4-2.8-12.8-7.4-15.8-14c1.1-3.1,3.1-6.3,7.9-9.6c8.5,0.8,16.3-0.8,24.8-5.4
			c7.1,0.6,11.9,3,11.7,9.1c5.6-6.7,7.3-12.3-5.1-15c-3.3-0.3-6.3,0.2-8.8,1.4c1.8-0.6,2.7-1.6,2.9-3c-14.6-7.6-30.5-8.4-47.3-4.5
			c-1,0.3-1.4,0.4-1.4,0.8c0.4,1,1.1,1.9,2,2.7l7.7,9.7l-2.7,7.3C105.5,100.8,117.1,104.1,125.7,105z"/>
		<path class="st8" d="M110.2,73.8c1.8-3.5,4.7-6.1,8.4-7.9c-6.2-1.3-11.9-1.5-16.7,0C102.4,68.5,105.2,71.2,110.2,73.8z"/>
		<path class="st10" d="M140.3,71.4c-3.3,1.1-6.5,2-9.9,1.5c-2.2-1.5-3.3-3.4-3.9-5.4C131.2,67.3,135.7,68.7,140.3,71.4z"/>
		<path class="st11" d="M132.1,68c-0.2,1.7,0.4,3.3,2,4.9c2.1-0.2,4.1-0.8,6.2-1.5C137.5,69.7,134.8,68.7,132.1,68z"/>
		<path class="st10" d="M134.9,68.8c0.1,1.1,0.3,2.1,1.5,2.5c1,0,1.3-0.6,1.5-1.3C136.9,69.6,135.9,69.2,134.9,68.8z"/>
		<path class="st1" d="M140.3,71.4c1.8-0.6,2.9-1.5,2.9-3c-2.5-1.3-5.4-2.5-8.5-3.6c5.6,0.3,10.8,1.5,14.5,5.2
			C146.2,69.7,143.2,70.1,140.3,71.4z"/>
		<path class="st2" d="M132.9,61.3c1.1,0.8,1.6,2,1.7,3.5c-2.1-0.7-4.3-1.3-6.6-1.8L132.9,61.3z"/>
		<path class="st8" d="M101.1,41.6c-9.4,2.1-13.3,17.2-3.5,21.9l-1.8,0.4h-5c-0.3-6.3-0.6-17.2,1.3-21.9
			C95.2,41.1,98.2,41,101.1,41.6z"/>
		<path class="st2" d="M108.7,39.5c-2.5,0.1-5,0.9-7.5,2c-9.3,2.3-13.1,16.9-3.5,21.9l8.2-1.4l3.6-2.3
			C103.5,54.1,102.3,47.5,108.7,39.5z"/>
		<path class="st8" d="M111.6,38.5c-0.9,0.1-2,0.4-3,1c-6.5,7.9-5.1,14.4,0.8,20.2l4.2-2.3C108.8,52.8,108,46.5,111.6,38.5z"/>
		<path class="st2" d="M117.3,33.3c19.8-12.9,51.6-27.1,61.3-26.8c13.5,0.1,18,27.2,10,32.6c-13.2,8.7-31.6,16.1-55.7,22.2l-4.9,1.6
			c-2.8-0.6-5.9-1-9.2-1.3l-5.2-4.2c-5.1-5.2-5.5-11.6-2-19C113,36.6,114.9,34.8,117.3,33.3z"/>
		<path class="st8" d="M178.7,9.2c4.7,0.9,8.3,4.3,10.5,10.9c1.7,7.6,1.5,13.7-4,15.3c-7.2-1-10.2-8-11.7-17.1
			C173.3,12.3,175,9.2,178.7,9.2z"/>
		<path class="st3" d="M109.6,50c-0.9-7.5,24.9-19.4,58.7-32.7c-1.1,8.2,1.3,15,7.4,20.3c-24.3,11.6-41.1,16.1-50.9,20.2
			c-3.7-2.1-7.4-2.2-11.1-0.4C111.7,55.4,110.4,53.6,109.6,50z"/>
		<path class="st3" d="M105.6,44.3c-4.7,1.3-9.2,2.8-13,5.8c-1.6,6.4,0.1,10.7,5,13.3c4.1-1.9,7.8-3.5,11.8-3.7
			C104.8,55.5,103.2,50.4,105.6,44.3z"/>
		<path class="st5" d="M154.3,85c-0.8,3.3-1.8,6.2-3,8.3c-0.3,2.1-0.3,4.2,0,6c-1.8,0.3-3.7,0.4-5.2,0c-2,2.7-5.3,4.7-9.4,6.2
			c-1.9,0.3-3.7,0.4-5.6,0.3c-1.9-0.1-3.6-0.4-5.2-0.9c-7.4-3-13-7.4-15.8-14c1.3-3.9,4.1-7,7.9-9.6c9.2,0.8,17.3-1.3,24.8-5.4
			C150.8,76.5,154.5,79.7,154.3,85z"/>
		<path class="st6" d="M140.9,95.1c0.7,4.2,6.7,4.7,5.1,4.2c-2,2.7-5.3,4.7-9.4,6.2c-1.9,0.3-3.7,0.4-5.6,0.3
			c-1.9-0.1-3.6-0.4-5.2-0.9c-7.4-3-13-7.4-15.8-14c0.6-1.8,2.7-4.9,2.7-4.9S126.5,98.3,140.9,95.1z"/>
		<path class="st2" d="M140.9,117.3c1.8-4,2.1-9,1.6-14.7c-1.6,1.1-3.7,2.1-5.9,3C138.3,109.4,139.7,113.3,140.9,117.3z"/>
		<path class="st0" d="M87.6,100.9l-3.5-0.1l-6.1,4.6l-6.6,14.3C80.9,117,87.5,111.9,87.6,100.9z"/>
		<path class="st10" d="M97.5,89.1c-5.3,1.3-10,1.8-13.1,3.8c-1.8,1.4-3.1,3.2-3.3,5.7c0.8,2,3.2,3,8.2,2
			C94.3,99.2,96.9,95.3,97.5,89.1z"/>
		<path class="st10" d="M77.9,83.8c-3-3.7-1.7-7.4,3.4-10.9c5.6-2,10.4-1.6,14.5,0.9l-7.4,7.7C86.1,85.3,82.6,86,77.9,83.8z"/>
		<path class="st10" d="M70.8,71.6c4.3-5.4,9.5-8.3,15.7-8c-0.9,3.9-2.5,7.1-5.2,9.3C78.3,70.1,74.7,70.2,70.8,71.6z"/>
		<path class="st10" d="M164,94.2c1,3,1.6,6.1,1.6,9c0.4,1.3,1.5,2,3.3,2.1c2.3-0.7,3.8-2.1,4-4.5C173,96.6,169.2,94.9,164,94.2z"/>
		<path class="st10" d="M176.1,99.4c0.4-4-0.4-7.2-4.7-8.5c-4-0.2-5.7,1.5-7.5,3.3C169.2,94.2,173.2,95.7,176.1,99.4z"/>
		<path class="st10" d="M157.2,99.9c0.7-3.2,1.6-6.1,3.5-8.1c1.8-0.2,3.7-0.1,5,0.7l-1.7,1.6C161.9,95.3,158.8,97.6,157.2,99.9z"/>
		<path class="st10" d="M36,191.2c-5.1,2.3-8.6,5.2-9.7,9c5,2.1,10.3,2.2,16,0.9C40.9,197.3,38.8,193.9,36,191.2z"/>
		<path class="st10" d="M57.3,192.9c-6.6,1.1-11.8,3.6-15,8.2c0.9,2.3,2.7,4.4,5.4,6.3c9.2,3.2,16.5,2.8,22.3,0
			c0.6-1.3,0.3-2.9-0.4-4.5C66.8,197.5,63,193.8,57.3,192.9z"/>
		<path class="st10" d="M74,198.2c3.5,1.4,6.1,3.7,7.8,6.8c-3.2,1-7.2,1-11.7,0.4c-0.1-0.9-0.3-1.8-0.8-2.7L74,198.2z"/>
		<path class="st10" d="M131.4,189.3c-2.1,0.7-3.6,2-4.7,3.9c-1.6,2-2.7,3.9-3.2,5.8c3.2,1,11.5-0.4,16.1-3
			C138.7,193.1,136.3,190.7,131.4,189.3z"/>
		<path class="st10" d="M141.8,196c1.7-4.2,5.2-6.8,10.6-8l1.8,1.4c8.2,4.8,12.1,8.7,11.3,11.4C161.7,203.2,146.9,201.3,141.8,196z"
			/>
		<path class="st10" d="M124.1,190.2c-2.1,1.1-3.9,2.8-5.1,5c1.5,1.1,3.4,1.2,5.9,0.7c0.4-0.8,1.1-1.7,1.8-2.6
			C125.9,192.1,125,191,124.1,190.2z"/>
		<path class="st10" d="M155.2,186.8c3.9,2.5,5.3,4.6,4.8,6.4c-1.9-1.3-3.9-2.7-5.9-3.8C154.7,188.4,155,187.5,155.2,186.8z"/>
		<path class="st3" d="M36,98.5c1.8,1.1,3.3,1.1,4.1-0.1c3.2-2.1,6.4-3.3,9.6-3.3c0.8,3.3,2.8,6.7,6.6,9.9c-5.9-1.7-13,0.1-11.3,1.5
			C41.2,105,38,102.8,36,98.5z"/>
		<path class="st7" d="M81.2,72.8c4.2-1.3,8-1.8,11.1-0.7c1.3-1.9,2.7-3.5,4.3-4.8c-1.1-0.9-1.8-1.8-2-2.7c0.2-0.4,0.7-0.7,1.4-0.8
			h-5c-1.6-0.1-3.3,0.3-4.9,1C85.2,68.5,83.5,71,81.2,72.8z"/>
		<path class="st2" d="M105.9,62.1l3.6-2.3l4.2-2.3l5.2,4.2"/>
	</g>
	<g>
		<path class="st12" d="M111.5,182.8c3.9,3.5,7.8,6.1,11.8,6.5c1.1,1.2,2.4,2.5,3.4,3.9c1.5-2.4,3-3.3,4.7-3.9
			c4.1,1.2,7.1,3.2,8.3,6.7h2c1.7-3.7,4.7-6.7,10.6-8l1.8,1.4c1.1-2.1,1.9-4.9,2-8.5c1.6-2,2.1-6.3,2.6-10.6
			c-3-9.7-10.1-15.9-18.5-21C134.7,164.4,125.3,175.8,111.5,182.8z"/>
		<path class="st12" d="M36,191.2c-0.8-2.1-0.8-4.1,0-6c-2.1-4.2-3.2-9.8-2-19.5c0.2-3.3,1.6-6.4,3.4-9.4
			c11.7-5.4,17.6-11.9,19.6-19.2c21.7,2.8,29.6,19,30.3,42c-1.8,4.2-4.5,7.8-8.5,10.2c-1.8,6-5.3,10-9.4,13.4
			c-3.2-5.7-7-9.5-12.2-9.9c-6.6,1.1-11.9,3.6-15,8.2C41.2,197.7,39.2,194.5,36,191.2z"/>
		<path class="st12" d="M31.9,164.2c-5.6,3-11.9,5.1-18.9,6.4c-1.7,5.4,13,14.9,23,14.7c-2.6-6.4-3.2-12.9-2-19.5L31.9,164.2z"/>
		<path class="st12" d="M59.8,128.1l-2.7,9.1c-1.9,7.6-8.3,14-19.6,19.2c-2.1,3.3-3.1,6.3-3.4,9.4l-2.1-1.6
			c-3.9-2.8-6.7-6.3-8.7-10.5c3.9-4.4,8.5-8.3,14.3-11.1c4.2-3.6,7.2-8,9-13.3C50.7,129.8,55.1,129.4,59.8,128.1z"/>
		<path class="st12" d="M34.3,124.4c3.6,3,7.6,4.9,12.3,5c-1.6,5.1-4.8,9.5-9,13.3c-2.1,1.1-3.7,2-4.7,2.7
			C31.4,138.3,31.9,131.3,34.3,124.4z"/>
		<path class="st12" d="M81.7,187.3c11.5,1.4,22,0.9,29.8-4.4c12.4-6.2,22.3-16.7,28.7-33.6c5.2-14,3-28.6-3.7-43.7
			c-3.6,0.6-7.2,0.4-10.9-0.6c-13.5-1.1-21.2-8.3-24-20.5c-0.6,2.3-1.2,4.5-1.6,6.2c-0.9,1.1-1.9,1.6-2.7,1.6
			c-1.8,4.8-4.5,8.3-9.6,8.7c0,9.8-5.6,15.9-16.2,18.8c-2.8,4.7-6.5,7.8-11.6,8.5l-2.7,9.1c19.3,2.7,29.9,16,30.3,42
			C86.3,181.9,84.3,184.6,81.7,187.3z"/>
		<path class="st12" d="M140.9,117.3l3.4,4.6c1.3-5.6,4.4-10.6,9-15c2,3.5,5,5.9,8.7,7.5c0,20.9-7.1,35.5-11,33.4l-8.7-5.9
			C143.9,133.7,143.3,125.5,140.9,117.3z"/>
		<path class="st12" d="M157.2,99.9c2.9,8.8,16,10.5,20.6,2.2c2.6,1.5,4.3,3.3,4.6,5.7c-0.6,3.3-10.6,5.2-10.3,7.1
			c-1,27.5-17.7,40.6-21.2,32.9c5.1,2.2,11.6-17.5,11-33.4c-3.9-1.7-6.9-4.1-8.7-7.5C152.3,105.1,153.8,102.7,157.2,99.9z"/>
		<path class="st12" d="M191.3,106.9l3.2,8.1c-0.5,8.8-3.7,16.7-9,23.9c-3,2-7.1,2.8-11.6,3c-4.4,4.7-9.7,6.1-15.4,6.4
			c7.3-5.9,12.5-15.9,13.6-33.4c0.2-1.4,3.9-2.3,8.7-5.1l1.1,4.3c3.1,0.2,5.9,0.1,8.1-0.8c0.1-1.9-0.2-3.5-1-4.9L191.3,106.9z"/>
		<path class="st12" d="M157.2,99.9c1.5-2.1,3.8-4,6.8-5.7c7.1,0,11.4,3,13.9,8C173.5,110.4,160.1,108.5,157.2,99.9z"/>
		<path class="st12" d="M176.1,87c2.3-6.4,17.9-6.1,19.5,0c-0.2,7.8-2.2,18.6-4.3,19.8l-2.2,1.5l-1.5,5.6c-1.6,0.3-3.5,0.3-5.7,0.2
			l-1.1-4.3c0.9-0.6,1.4-1.3,1.6-2c-0.3-2.7-2.3-4.4-4.6-5.7c-0.6-1.1-1.2-2.1-1.8-2.8L176.1,87L176.1,87z"/>
		<path class="st12" d="M26.9,116.6l7.4,7.7c3.7,3.1,7.8,4.9,12.3,5c4.4,0.4,8.8,0,13.2-1.3c5.7-0.8,9.1-4.2,11.6-8.5l6.6-14.3
			l6.1-4.6c-3.3,0.8-6.3,0.8-8.7-0.4c-1.8,2.5-4,4.2-6.6,5.2C64.5,120.4,45.5,128.9,26.9,116.6z"/>
		<path class="st12" d="M24.4,113.8c11,2.4,20.7,1.8,27.7-4.4c7.2,0.2,13-0.8,16.6-3.9c-6.3,18-26.3,21.7-41.8,11.1
			C25.9,115.9,25.3,114.7,24.4,113.8z"/>
		<path class="st12" d="M43.7,82.2c-6.3-0.5-12.1-0.3-17.1,1.5c-4.6,3.8-8.2,7.6-9.5,11.1c-1.1,6.4-0.5,12,2.5,16.2
			c1.4,1.3,3,2.2,4.8,2.7c11.5,2.5,21,1.6,27.7-4.4c-3-1-5.4-2-7.1-3c-2.2,1.6-5.6,2.5-8.8,3c-6.6-5.6-6.8-14.7-4.3-21.5
			c2.9-1.8,6.1-2.3,9.4-2C41.4,84.8,42.4,83.6,43.7,82.2z"/>
		<path class="st12" d="M41.2,85.8c-3.3-0.6-6.4,0.3-9.4,2c-2.7,8.6-1.8,15.9,4.3,21.5c3.5-0.4,6.5-1.3,8.8-3
			C34.4,101.8,32.5,95.1,41.2,85.8z"/>
		<path class="st12" d="M41.2,85.8c-8.5,8.7-7.2,15.5,3.8,20.5C39.3,100.6,38.1,93.7,41.2,85.8z"/>
		<path class="st12" d="M43.7,82.2c5.7-4.1,11.8-6.6,18.3-6.8c13.3,2.4,18.6,10.2,13.5,25c-1.6,2.4-3.8,4.2-6.6,5.2
			c-3.9,3-9.5,4.2-16.6,3.9c-3-1-5.4-2-7.1-3c-5.4-5.6-7-12.4-3.8-20.5L43.7,82.2z"/>
		<path class="st12" d="M26.6,83.8c7.6-9.5,17.7-11.8,29.7-7.6c-4.9,1.4-9.2,3.3-12.6,6.1C37.1,81.5,31.5,82.2,26.6,83.8z"/>
		<path class="st12" d="M65.9,76.4c0.3-1.5,2-3.1,4.9-4.7c-1.9-0.2-3.7,0-5.2,0.6c-15.7-8.7-26.3-3.4-35,7.4
			c6.8-5.7,15.2-7.1,25.8-3.5c1.8-0.4,3.7-0.7,5.6-0.8C63.2,75.6,64.5,75.9,65.9,76.4z"/>
		<path class="st12" d="M81.2,72.8c-2.8-2.8-6.5-2.5-10.5-1.3c-2.5,1.3-4,2.9-4.9,4.7c9.9,3.4,14.5,10.4,9.5,24
			c3.1,1.3,5.9,1.2,8.7,0.4c-2-0.6-2.7-1.4-2.9-2.3c0.4-4.5,3.7-6.8,8.7-7.6c1.3-4.4,0.6-7.3-1.5-9.4c-2.1,3.8-5.6,4.5-10.5,2.3
			C74.8,79.5,76.6,75.9,81.2,72.8z"/>
		<path class="st12" d="M70.8,71.6c-1.9-0.1-3.7,0-5.2,0.6c-5.2-2.8-9.9-4.2-14.2-4.3C58,53.6,70,41.6,86,31.4
			c11.1-1.1,21.6-1.4,31,0c0.5,0.6,0.6,1.2,0.4,1.8c-2.5,1.8-4.9,3.5-5.7,5.2c-1.3,0.2-2.3,0.5-3,1c-2.8,0.2-5.2,0.9-7.5,2
			C98,41,95,40.8,92.4,41.7c-1.7,4.9-1.8,13.3-1.3,21.9c-1.7-0.1-3.3,0.3-4.9,1c0.1-0.4,0.3-0.8,0.4-1.3
			C78.9,63.3,74.7,67.2,70.8,71.6z"/>
		<path class="st12" d="M81.2,72.8c3.7-1.3,7.3-1.8,11.1-0.7c0.8-1.6,2.4-3.2,4.3-4.8c-1-0.9-1.8-1.8-2-2.7c0.2-0.4,0.7-0.7,1.4-0.8
			h-5c-1.7-0.1-3.3,0.3-4.9,1C85.8,67.5,84,70.2,81.2,72.8z"/>
		<path class="st12" d="M61.5,79c6.9-0.4,11.1,2.5,12.9,8.4c1.2,8.8-2,14.3-10.6,15.6c-7.5-0.4-11.1-4.4-11.6-11.4
			C52,85.3,54.6,80.5,61.5,79z"/>
		<path class="st12" d="M96.6,67.4l7.7,9.7l-2.7,7.3l-1.6,6.2c-0.8,1.1-1.8,1.5-2.7,1.6l0.3-3.1l-7.7,1.8c1.2-3.7,0.8-6.8-1.5-9.4
			l7.4-7.7l-3.4-1.6C93.2,70.6,94.6,69,96.6,67.4z"/>
		<path class="st12" d="M178.8,86.5c0.8-1.2,2.7-2.1,7.1-2.1c4.5,0.1,6.6,1.1,7.5,2.5c-1.5,1.4-3.2,2.3-7.3,1.9
			C181.6,88.6,179.2,87.8,178.8,86.5z"/>
		<path class="st12" d="M189.1,108.5c0.7,1.3,1.1,3,1,4.9c-0.8,0.3-1.6,0.5-2.5,0.6L189.1,108.5z"/>
		<path class="st12" d="M125.7,105c-7.4-2.8-12.8-7.4-15.8-14c1.1-3.1,3.1-6.3,7.9-9.6c8.5,0.8,16.3-0.8,24.8-5.4
			c7.1,0.6,11.9,3,11.7,9.1c5.6-6.7,7.3-12.3-5.1-15c-3.3-0.3-6.3,0.2-8.8,1.4c1.8-0.6,2.7-1.6,2.9-3c-14.6-7.6-30.5-8.4-47.3-4.5
			c-0.6,0.1-1.1,0.3-1.4,0.8c0.4,1,1.1,1.9,2,2.7l7.7,9.7l-2.7,7.3C105.5,100.8,117.1,104.1,125.7,105z"/>
		<path class="st12" d="M110.2,73.8c1.8-3.5,4.7-6.1,8.4-7.9c-6.2-1.3-11.9-1.5-16.7,0C102.4,68.5,105.2,71.2,110.2,73.8z"/>
		<path class="st12" d="M140.3,71.4c-3.3,1.1-6.5,2-9.9,1.5c-2.2-1.5-3.3-3.4-3.9-5.4C131.2,67.3,135.7,68.7,140.3,71.4z"/>
		<path class="st12" d="M132.1,68c-0.2,1.7,0.4,3.3,2,4.9c2.1-0.2,4.1-0.8,6.2-1.5C137.5,69.7,134.8,68.7,132.1,68z"/>
		<path class="st12" d="M134.9,68.8c0.1,1.1,0.3,2.1,1.5,2.5c1,0,1.3-0.6,1.5-1.3C136.9,69.6,135.9,69.2,134.9,68.8z"/>
		<path class="st12" d="M140.3,71.4c1.8-0.6,2.9-1.5,2.9-3c-2.5-1.3-5.4-2.5-8.5-3.6c5.6,0.3,10.8,1.5,14.5,5.2
			C146.2,69.7,143.2,70.1,140.3,71.4z"/>
		<path class="st12" d="M132.9,61.3c1.1,0.8,1.6,2,1.7,3.5c-2.1-0.7-4.3-1.3-6.6-1.8L132.9,61.3z"/>
		<path class="st12" d="M101.1,41.6c-9.4,2.1-13.3,17.2-3.5,21.9l-1.8,0.4h-5c-0.3-6.3-0.6-17.2,1.3-21.9
			C95.2,41.1,98.2,41,101.1,41.6z"/>
		<path class="st12" d="M108.7,39.5c-2.5,0.1-5,0.9-7.5,2c-9.3,2.3-13.1,16.9-3.5,21.9l8.2-1.4l3.6-2.3
			C103.5,54.1,102.3,47.5,108.7,39.5z"/>
		<path class="st12" d="M111.6,38.5c-0.9,0.1-2,0.4-3,1c-6.5,7.9-5.1,14.4,0.8,20.2l4.2-2.3C108.8,52.8,108,46.5,111.6,38.5z"/>
		<path class="st12" d="M117.3,33.3c19.8-12.9,51.6-27.1,61.3-26.8c13.5,0.1,18,27.2,10,32.6c-13.2,8.7-31.6,16.1-55.7,22.2
			l-4.9,1.6c-2.8-0.6-5.9-1-9.2-1.3l-5.2-4.2c-5.1-5.2-5.5-11.6-2-19C113,36.6,114.9,34.8,117.3,33.3z"/>
		<path class="st12" d="M178.7,9.2c4.7,0.9,8.3,4.3,10.5,10.9c1.7,7.6,1.5,13.7-4,15.3c-7.2-1-10.2-8-11.7-17.1
			C173.3,12.3,175,9.2,178.7,9.2z"/>
		<path class="st12" d="M154.3,85c-0.8,3.3-1.8,6.2-3,8.3c-0.3,2.1-0.3,4.2,0,6c-1.8,0.3-3.7,0.4-5.2,0c-2,2.7-5.3,4.7-9.4,6.2
			c-1.9,0.3-3.7,0.4-5.6,0.3c-1.9-0.1-3.6-0.4-5.2-0.9c-7.4-3-13-7.4-15.8-14c1.3-3.9,4.1-7,7.9-9.6c9.2,0.8,17.3-1.3,24.8-5.4
			C150.8,76.5,154.5,79.7,154.3,85z"/>
		<path class="st12" d="M140.9,117.3c1.8-4,2.1-9,1.6-14.7c-1.6,1.1-3.7,2.1-5.9,3C138.3,109.4,139.7,113.3,140.9,117.3z"/>
		<path class="st12" d="M87.6,100.9l-3.5-0.1l-6.1,4.6l-6.6,14.3C80.9,117,87.5,111.9,87.6,100.9z"/>
		<path class="st12" d="M97.5,89.1c-5.3,1.3-10,1.8-13.1,3.8c-1.8,1.4-3.1,3.2-3.3,5.7c0.8,2,3.2,3,8.2,2
			C94.3,99.2,96.9,95.3,97.5,89.1z"/>
		<path class="st12" d="M77.9,83.8c-3-3.7-1.7-7.4,3.4-10.9c5.6-2,10.4-1.6,14.5,0.9l-7.4,7.7C86.1,85.3,82.6,86,77.9,83.8z"/>
		<path class="st12" d="M70.8,71.6c4.3-5.4,9.5-8.3,15.7-8c-0.9,3.9-2.5,7.1-5.2,9.3C78.3,70.1,74.7,70.2,70.8,71.6z"/>
		<path class="st12" d="M164,94.2c1,3,1.6,6.1,1.6,9c0.4,1.3,1.5,2,3.3,2.1c2.3-0.7,3.8-2.1,4-4.5C173,96.6,169.2,94.9,164,94.2z"/>
		<path class="st12" d="M176.1,99.4c0.4-4-0.4-7.2-4.7-8.5c-4-0.2-5.7,1.5-7.5,3.3C169.2,94.2,173.2,95.7,176.1,99.4z"/>
		<path class="st12" d="M157.2,99.9c0.7-3.2,1.6-6.1,3.5-8.1c1.8-0.2,3.7-0.1,5,0.7l-1.7,1.6C161.9,95.3,158.8,97.6,157.2,99.9z"/>
		<path class="st12" d="M36,191.2c-5.1,2.3-8.6,5.2-9.7,9c5,2.1,10.3,2.2,16,0.9C40.9,197.3,38.8,193.9,36,191.2z"/>
		<path class="st12" d="M57.3,192.9c-6.6,1.1-11.8,3.6-15,8.2c0.9,2.3,2.7,4.4,5.4,6.3c9.2,3.2,16.5,2.8,22.3,0
			c0.6-1.3,0.3-2.9-0.4-4.5C66.8,197.5,63,193.8,57.3,192.9z"/>
		<path class="st12" d="M74,198.2c3.5,1.4,6.1,3.7,7.8,6.8c-3.2,1-7.2,1-11.7,0.4c-0.1-0.9-0.3-1.8-0.8-2.7L74,198.2z"/>
		<path class="st12" d="M131.4,189.3c-2.1,0.7-3.6,2-4.7,3.9c-1.6,2-2.7,3.9-3.2,5.8c3.2,1,11.5-0.4,16.1-3
			C138.7,193.1,136.3,190.7,131.4,189.3z"/>
		<path class="st12" d="M141.8,196c1.7-4.2,5.2-6.8,10.6-8l1.8,1.4c8.2,4.8,12.1,8.7,11.3,11.4C161.7,203.2,146.9,201.3,141.8,196z"
			/>
		<path class="st12" d="M124.1,190.2c-2.1,1.1-3.9,2.8-5.1,5c1.5,1.1,3.4,1.2,5.9,0.7c0.4-0.8,1.1-1.7,1.8-2.6
			C125.9,192.1,125,191,124.1,190.2z"/>
		<path class="st12" d="M155.2,186.8c3.9,2.5,5.3,4.6,4.8,6.4c-1.9-1.3-3.9-2.7-5.9-3.8C154.7,188.4,155,187.5,155.2,186.8z"/>
		<path class="st12" d="M36,185.2c2.4-6,9.4-16.2,11.2-17.2c3.8-2.1,25,0.4,30.6,6c0.8,0.8,1.1,13.6,0.9,15.4"/>
		<path class="st12" d="M123.5,189.1c0.9,0.1,1.7-0.1,2.5-0.4c1.1-0.5,2-1.5,2.9-2.4c4.2-4.6,7.8-9.7,10.9-15.2
			c0.2-0.4,0.4-0.8,0.8-1.1c0.4-0.3,0.9-0.3,1.5-0.3c3.6-0.1,7.1-0.3,10.7-0.4c0.7,0,1.5,0,2,0.4c0.3,0.3,0.4,0.8,0.6,1.1
			c0.9,3.3,1.4,6.9,1.4,10.4"/>
		<path class="st12" d="M87.3,179.2c4.7,3.7,20.9,5.6,24.2,3.7"/>
		<path class="st12" d="M86.6,180.8c0.8,0.7,4,1.9,5,2.1"/>
		<path class="st12" d="M95.8,184.2c0.5,0.3,3.6,0.7,4.7,0.7"/>
		<path class="st12" d="M75.6,145.2c18.4,12.8,41.6,20,63.7,6.6"/>
		<path class="st12" d="M79.5,149.8c0.7,0.6,10,5.4,13.8,7.4"/>
		<path class="st12" d="M101,158.8c11.2,4,27.4,1.5,30.9-0.3"/>
		<path class="st12" d="M59.2,130.2c1,1.2,2,2.5,3,3.7c1.9,2.3,3.8,4.6,6,6.6"/>
		<path class="st12" d="M58.4,132c0.9,1.3,1.8,2.5,2.7,3.8c0.3,0.4,0.5,0.7,0.8,0.9"/>
		<path class="st12" d="M70.2,121.5c7,0,13.3-3.9,17-9.2"/>
		<path class="st12" d="M89.2,100.7c0.8,1.3,0.5,3.5-0.3,4.9"/>
		<path class="st12" d="M84.6,115.4c11.8,11.1,36.5,18.3,57.2,5.3"/>
		<path class="st12" d="M84.6,118.4c6.3,5.5,17.8,10.6,21.8,11"/>
		<path class="st12" d="M113.7,130.3c8.6,0.8,19.1-2.1,23.3-4.5"/>
		<path class="st12" d="M122.5,107.5c2.1,0.8,8-0.3,9.6-1.5"/>
		<path class="st12" d="M100,90.6c1.8,5.2,5.9,9.7,11.9,13.4"/>
		<path class="st12" d="M104.4,77.1c0.6,0.9,1.3,1.6,2,2"/>
		<path class="st12" d="M117.8,81.4c0.1-0.1-1.3-2-0.6-3.9"/>
		<path class="st12" d="M149,71.9c0.9,0.5,1.7,1.4,2.1,2.3"/>
		<path class="st12" d="M152.3,74.8c1.1,0.3,2.6,0.9,3.5,1.5c0.7,0.5,2,1.3,2.5,2.1"/>
		<path class="st12" d="M118.6,65.9c1,0.1,6.4,1.3,8,1.5"/>
		<path class="st12" d="M24.6,88.7c-1.8,1.4-0.9,20.9,2.9,22.7"/>
		<path class="st12" d="M32.7,115c-0.2,0.5,2.9,5.7,3.8,6.2"/>
		<path class="st12" d="M52.1,109.6c-0.3,0.8,5.1,7.5,7,8.9"/>
		<path class="st12" d="M30.4,82.7c0.3-0.5,2.1-4.4,3.2-5.2"/>
		<path class="st12" d="M49.5,78.7c0.3-1.5,1.2-2.8,2.3-3.7"/>
		<path class="st12" d="M61.9,75.4c0.1-0.4,0.3-1.3,0.6-1.6"/>
		<path class="st12" d="M65.6,72.2c-0.8,0-1.2,0.3-1.6,0.6"/>
		<path class="st12" d="M84.9,35.4c-1.8,2.7-4.9,24.4-3.6,27.3"/>
		<path class="st12" d="M144.3,121.9c0.9,3.2,1.5,6.6,1.4,9.9c0,1.7-0.2,3.5,0.6,5s2.3,2.5,3.8,3.3c2.2,1.1,4.3,2,6.7,2.5"/>
		<path class="st12" d="M145.9,117.1c-0.3,1.6,9.4,9.5,15.1,10.6"/>
		<path class="st12" d="M171.7,122.9c3.3-1.6,6.9-3.6,10.2-5.8"/>
		<path class="st12" d="M182,114.2c0.3,1.7-0.6,8.1-0.6,9"/>
		<path class="st12" d="M177.8,135c1.5-2.2,3-6.3,3.1-8.3"/>
		<path class="st12" d="M173.9,141.9c0.9-0.7,1.6-1.7,2-2.8"/>
		<path class="st12" d="M164.3,142.3c2.6,0.9,4.8,1.4,7.6,1.5"/>
		<path class="st12" d="M181.9,117.2c5.4,0.4,9.2-0.8,10.4-1.6"/>
		<path class="st12" d="M142,96.6c0.4,1.2,2.3,2.2,4,2.8"/>
	</g>
</g>
<g>
	<g>
		<path class="st13" d="M350.2,182.8c3.9,3.5,7.8,6.1,11.8,6.5c1.1,1.2,2.4,2.5,3.4,3.9c1.5-2.4,3-3.3,4.7-3.9
			c4.1,1.2,7.1,3.2,8.3,6.7h2c1.7-3.7,4.7-6.7,10.6-8l1.8,1.4c1.1-2.1,1.9-4.9,2-8.5c1.6-2,2.1-6.3,2.6-10.6
			c-3-9.7-10.1-15.9-18.5-21C373.4,164.4,364,175.8,350.2,182.8z"/>
		<path class="st14" d="M395,180.9c1.6-2,2.1-6.3,2.6-10.6c-3-9.7-10.1-15.9-18.5-21c-3,8.1-7.1,15.1-12.4,21
			c-2.3,2.6,10.4,3.9,7.8,7.6C370.1,184.4,394.8,182.7,395,180.9z"/>
		<path class="st13" d="M274.7,191.2c-0.8-2.1-0.8-4.1,0-6c-2.1-4.2-3.2-9.8-2-19.5c0.2-3.3,1.6-6.4,3.4-9.4
			c11.7-5.4,17.6-11.9,19.6-19.2c21.7,2.8,29.6,19,30.3,42c-1.8,4.2-4.5,7.8-8.5,10.2c-1.8,6-5.3,10-9.4,13.4
			c-3.2-5.7-7-9.5-12.2-9.9c-6.6,1.1-11.9,3.6-15,8.2C280,197.7,278,194.5,274.7,191.2z"/>
		<path class="st14" d="M276.2,156.4c11.7-5.4,17.6-11.9,19.6-19.2c21.7,2.8,29.6,19,30.3,42C307.5,192.7,272,179.5,276.2,156.4z"/>
		<path class="st13" d="M270.6,164.2c-5.6,3-11.9,5.1-18.9,6.4c-1.7,5.4,13,14.9,23,14.7c-2.6-6.4-3.2-12.9-2-19.5L270.6,164.2z"/>
		<path class="st2" d="M298.5,128.1l-2.7,9.1c-1.9,7.6-8.3,14-19.6,19.2c-2.1,3.3-3.1,6.3-3.4,9.4l-2.1-1.6
			c-3.9-2.8-6.7-6.3-8.7-10.5c3.9-4.4,8.5-8.3,14.3-11.1c4.2-3.6,7.2-8,9-13.3C289.4,129.8,293.8,129.4,298.5,128.1z"/>
		<path class="st3" d="M298.5,128.1l-2.7,9.1c-1.9,7.6-8.3,14-19.6,19.2c-2.1,3.3-3.1,6.3-3.4,9.4l-2.1-1.6
			c-0.6-0.4-1.1-0.8-1.6-1.3c-3-2.6-2.2-14.2,0.6-16.3c2-1.5,4.2-2.8,6.6-3.9c4.2-3.6,7.2-8,9-13.3
			C289.4,129.8,293.8,129.4,298.5,128.1z"/>
		<path class="st15" d="M273,124.4c3.6,3,7.6,4.9,12.3,5c-1.6,5.1-4.8,9.5-9,13.3c-2.1,1.1-3.7,2-4.7,2.7
			C270.1,138.3,270.6,131.3,273,124.4z"/>
		<path class="st16" d="M320.4,187.3c11.5,1.4,22,0.9,29.8-4.4c12.4-6.2,22.3-16.7,28.7-33.6c5.2-14,3-28.6-3.7-43.7
			c-3.6,0.6-7.2,0.4-10.9-0.6c-13.5-1.1-21.2-8.3-24-20.5c-0.6,2.3-1.2,4.5-1.6,6.2c-0.9,1.1-1.9,1.6-2.7,1.6
			c-1.8,4.8-4.5,8.3-9.6,8.7c0,9.8-5.6,15.9-16.2,18.8c-2.8,4.7-6.5,7.8-11.6,8.5l-2.7,9.1c19.3,2.7,29.9,16,30.3,42
			C325,181.9,323.1,184.6,320.4,187.3z"/>
		<path class="st17" d="M369.7,105.9c-1.8-0.1-3.5-0.4-5.2-0.9c-13.5-1.1-21.2-8.3-24-20.5c-0.6,2.3-1.2,4.5-1.6,6.2
			c-0.9,1.1-1.9,1.6-2.7,1.6c-1.8,4.8-4.5,8.3-9.6,8.7c0,9.8-5.6,15.9-16.2,18.8c-2.8,4.7-6.5,7.8-11.6,8.5l-2.7,9.1
			c7.5,1.1,13.7,3.7,18.4,8.1c3.3,3-4.8-18.6,6.7-27.5c6.2-4.8,22.6,2.7,29.5,3C364.5,121.4,370.3,105.9,369.7,105.9z"/>
		<path class="st17" d="M320.4,187.3c11.5,1.4,22,0.9,29.8-4.4c9.4-4.7,17.5-11.9,23.6-22.6c-25.8,8.7-47.8-1.8-58-13.3
			c6.4,7,9.9,17.6,10.2,32.2C325,181.9,323.1,184.6,320.4,187.3z"/>
		<path class="st14" d="M379.6,117.3l3.4,4.6c1.3-5.6,4.4-10.6,9-15c2,3.5,5,5.9,8.7,7.5c0,20.9-7.1,35.5-11,33.4l-8.7-5.9
			C382.6,133.7,382,125.5,379.6,117.3z"/>
		<path class="st13" d="M379.6,117.3l3.4,4.6c0.1-0.6,0.3-1.1,0.4-1.7c3.5,2.9,11.8,4.3,16.9,2.2c-1,11.5-4.2,20.2-7.1,23.8
			c-7.3-5.6-6.4-2.1-11.9-6.1C382.5,132.5,381.8,124.9,379.6,117.3z"/>
		<path class="st2" d="M396,99.9c2.9,8.8,16,10.5,20.6,2.2c2.6,1.5,4.3,3.3,4.6,5.7c-0.6,3.3-10.6,5.2-10.3,7.1
			c-1,27.5-17.7,40.6-21.2,32.9c5.1,2.2,11.6-17.5,11-33.4c-3.9-1.7-6.9-4.1-8.7-7.5C391.1,105.1,392.6,102.7,396,99.9z"/>
		<path class="st3" d="M410.1,123.4c-3.6,21.7-17.2,31.3-20.3,24.4c4.2,1.8,9.5-11.7,10.7-25.5C402.3,127.2,408,127.6,410.1,123.4z"
			/>
		<path class="st18" d="M430,106.9l3.2,8.1c-0.5,8.8-3.7,16.7-9,23.9c-3,2-7.1,2.8-11.6,3c-4.4,4.7-9.7,6.1-15.4,6.4
			c7.3-5.9,12.5-15.9,13.6-33.4c0.2-1.4,3.9-2.3,8.7-5.1l1.1,4.3c3.1,0.2,5.9,0.1,8.1-0.8c0.1-1.9-0.2-3.5-1-4.9L430,106.9z"/>
		<path class="st15" d="M430.9,126.5c-1.5,4.4-3.8,8.5-6.7,12.4c-3,2-7.1,2.8-11.6,3c-4.4,4.7-9.7,6.1-15.4,6.4
			c6-4.9,10.6-12.4,12.6-24.7c6.7,3.1,10.2-1.1,10.2-1.1S424.3,126.3,430.9,126.5z"/>
		<path class="st14" d="M396,99.9c1.5-2.1,3.8-4,6.8-5.7c7.1,0,11.4,3,13.9,8C412.2,110.4,398.8,108.5,396,99.9z"/>
		<path class="st2" d="M414.9,87c2.3-6.4,17.9-6.1,19.5,0c-0.2,7.8-2.2,18.6-4.3,19.8l-2.2,1.5l-1.5,5.6c-1.6,0.3-3.5,0.3-5.7,0.2
			l-1.1-4.3c0.9-0.6,1.4-1.3,1.6-2c-0.3-2.7-2.3-4.4-4.6-5.7c-0.6-1.1-1.2-2.1-1.8-2.8L414.9,87L414.9,87z"/>
		<path class="st2" d="M265.6,116.6l7.4,7.7c3.7,3.1,7.8,4.9,12.3,5c4.4,0.4,8.8,0,13.2-1.3c5.7-0.8,9.1-4.2,11.6-8.5l6.6-14.3
			l6.1-4.6c-3.3,0.8-6.3,0.8-8.7-0.4c-1.8,2.5-4,4.2-6.6,5.2C303.2,120.4,284.2,128.9,265.6,116.6z"/>
		<path class="st3" d="M298.5,128.1c5.7-1.2,9.1-4.2,11.6-8.5l6.6-14.3l6.1-4.6c-3.3,0.8-6.3,0.8-8.7-0.4c-1.8,2.5-4,4.2-6.6,5.2
			c-2.7,9.4-11.2,16.2-21.7,16.9C297.7,123.2,295,126,298.5,128.1z"/>
		<path class="st15" d="M263.1,113.8c11,2.4,20.7,1.8,27.7-4.4c7.2,0.2,13-0.8,16.6-3.9c-6.3,18-26.3,21.7-41.8,11.1
			C264.6,115.9,264.1,114.7,263.1,113.8z"/>
		<path class="st15" d="M282.4,82.2c-6.3-0.5-12.1-0.3-17.1,1.5c-4.6,3.8-8.2,7.6-9.5,11.1c-1.1,6.4-0.5,12,2.5,16.2
			c1.4,1.3,3,2.2,4.8,2.7c11.5,2.5,21,1.6,27.7-4.4c-3-1-5.4-2-7.1-3c-2.2,1.6-5.6,2.5-8.8,3c-6.6-5.6-6.8-14.7-4.3-21.5
			c2.9-1.8,6.1-2.3,9.4-2C280.1,84.8,281.1,83.6,282.4,82.2z"/>
		<path class="st18" d="M265.4,83.8c-3.2,6.6-3.5,13.8-1.8,21.2c-4.9-1.1-7.6-4.4-7.6-10C257.9,90.6,261.1,86.9,265.4,83.8z"/>
		<path class="st8" d="M279.9,85.8c-3.3-0.6-6.4,0.3-9.4,2c-2.7,8.6-1.8,15.9,4.3,21.5c3.5-0.4,6.5-1.3,8.8-3
			C273.2,101.8,271.2,95.1,279.9,85.8z"/>
		<path class="st2" d="M279.9,85.8c-8.5,8.7-7.2,15.5,3.8,20.5C278.1,100.6,276.8,93.7,279.9,85.8z"/>
		<path class="st2" d="M282.4,82.2c5.7-4.1,11.8-6.6,18.3-6.8c13.3,2.4,18.6,10.2,13.5,25c-1.6,2.4-3.8,4.2-6.6,5.2
			c-3.9,3-9.5,4.2-16.6,3.9c-3-1-5.4-2-7.1-3c-5.4-5.6-7-12.4-3.8-20.5L282.4,82.2z"/>
		<path class="st15" d="M265.4,83.8c7.6-9.5,17.7-11.8,29.7-7.6c-4.9,1.4-9.2,3.3-12.6,6.1C275.9,81.5,270.2,82.2,265.4,83.8z"/>
		<path class="st2" d="M304.6,76.4c0.3-1.5,2-3.1,4.9-4.7c-1.9-0.2-3.7,0-5.2,0.6c-15.7-8.7-26.3-3.3-35,7.5
			c6.8-5.7,15.2-7.1,25.8-3.5c1.8-0.4,3.7-0.7,5.6-0.8C301.9,75.6,303.2,75.9,304.6,76.4z"/>
		<path class="st14" d="M320,72.8c-2.8-2.8-6.5-2.5-10.5-1.3c-2.5,1.3-4,2.9-4.9,4.7c9.9,3.4,14.5,10.4,9.5,24
			c3.1,1.3,5.9,1.2,8.7,0.4c-2-0.6-2.7-1.4-2.9-2.3c0.4-4.5,3.7-6.8,8.7-7.6c1.3-4.4,0.6-7.3-1.5-9.4c-2.1,3.8-5.6,4.5-10.5,2.3
			C313.5,79.5,315.3,75.9,320,72.8z"/>
		<path class="st18" d="M309.5,71.6c-1.9-0.1-3.7,0-5.2,0.6c-5.2-2.8-9.9-4.2-14.2-4.3c6.6-14.3,18.6-26.3,34.6-36.5
			c11.1-1.1,21.6-1.4,31,0c0.5,0.6,0.6,1.2,0.4,1.8c-2.5,1.8-4.9,3.5-5.7,5.2c-1.3,0.2-2.3,0.5-3,1c-2.8,0.2-5.2,0.9-7.5,2
			c-3.2-0.4-6.2-0.6-8.8,0.3c-1.7,4.9-1.8,13.3-1.3,21.9c-1.7-0.1-3.3,0.3-4.9,1c0.1-0.4,0.3-0.8,0.4-1.3
			C317.6,63.3,313.4,67.2,309.5,71.6z"/>
		<path class="st9" d="M320,72.8c3.7-1.3,7.3-1.8,11.1-0.7c0.8-1.6,2.4-3.2,4.3-4.8c-1-0.9-1.8-1.8-2-2.7c0.2-0.4,0.7-0.7,1.4-0.8
			h-5c-1.7-0.1-3.3,0.3-4.9,1C324.5,67.5,322.7,70.2,320,72.8z"/>
		<path class="st15" d="M322.1,41c-1.6,0.2-3.2,0.6-3.7,2.1c0.8,2.9,0.3,4.9-1.6,6.1c-2.2-0.8-3.7,0.3-4.7,3
			c1.5,3.2-0.4,5.4-2.7,7.5c2,2.3,3.8,3.3,5.3,1.2c1.8-2.3,2.8-1.6,3,2c0.3,0.8,0.9,0.9,1.8,0.4C319.5,55.6,320.2,48.2,322.1,41z"/>
		<path class="st15" d="M319.7,57.3l-0.1,5.9v0.9c2.3-0.6,4.2-0.8,5.6-0.6l-0.4,1.3c1.5-0.6,3.1-1.1,4.9-1
			c-0.3-4.5-0.1-13.1-0.1-13.1L319.7,57.3z"/>
		<path class="st8" d="M300.2,79c6.9-0.4,11.1,2.5,12.9,8.4c1.2,8.8-2,14.3-10.6,15.6c-7.5-0.4-11.1-4.4-11.6-11.4
			C290.8,85.3,293.3,80.5,300.2,79z"/>
		<path class="st2" d="M335.3,67.4l7.7,9.7l-2.7,7.3l-1.6,6.2c-0.8,1.1-1.8,1.5-2.7,1.6l0.3-3.1l-7.7,1.8c1.2-3.7,0.8-6.8-1.5-9.4
			l7.4-7.7l-3.4-1.6C331.9,70.6,333.4,69,335.3,67.4z"/>
		<path class="st8" d="M417.5,86.5c0.8-1.2,2.7-2.1,7.1-2.1c4.5,0.1,6.6,1.1,7.5,2.5c-1.5,1.4-3.2,2.3-7.3,1.9
			C420.4,88.6,418,87.8,417.5,86.5z"/>
		<path class="st3" d="M416.6,102.1c4.7,0.7,5.1-4.1,3.2-12c3.8,1.3,7.3,1.4,10.7,0c1.1,17.3-6.9,14.6-7,19.3c1.3,1.3,2.8,1.3,4.3-1
			l-1.5,5.6c-1.6,0.3-3.5,0.3-5.7,0.2l-1.1-4.3c0.9-0.6,1.4-1.3,1.6-2C420.9,105.6,419.3,103.7,416.6,102.1z"/>
		<path class="st8" d="M427.8,108.5c0.7,1.3,1.1,3,1,4.9c-0.8,0.3-1.6,0.5-2.5,0.6L427.8,108.5z"/>
		<path class="st14" d="M364.5,105c-7.4-2.8-12.8-7.4-15.8-14c1.1-3.1,3.1-6.3,7.9-9.6c8.5,0.8,16.3-0.8,24.8-5.4
			c7.1,0.6,11.9,3,11.7,9.1c5.6-6.7,7.3-12.3-5.1-15c-3.3-0.3-6.3,0.2-8.8,1.4c1.8-0.6,2.7-1.6,2.9-3c-14.6-7.6-30.5-8.4-47.3-4.5
			c-1,0.3-1.4,0.4-1.4,0.8c0.4,1,1.1,1.9,2,2.7l7.7,9.7l-2.7,7.3C344.2,100.8,355.8,104.1,364.5,105z"/>
		<path class="st8" d="M348.9,73.8c1.8-3.5,4.7-6.1,8.4-7.9c-6.2-1.3-11.9-1.5-16.7,0C341.1,68.5,343.9,71.2,348.9,73.8z"/>
		<path class="st10" d="M379,71.4c-3.3,1.1-6.5,2-9.9,1.5c-2.2-1.5-3.3-3.4-3.9-5.4C369.9,67.3,374.4,68.7,379,71.4z"/>
		<path class="st11" d="M370.8,68c-0.2,1.7,0.4,3.3,2,4.9c2.1-0.2,4.1-0.8,6.2-1.5C376.3,69.7,373.6,68.7,370.8,68z"/>
		<path class="st10" d="M373.6,68.8c0.1,1.1,0.3,2.1,1.5,2.5c1,0,1.3-0.6,1.5-1.3C375.6,69.6,374.6,69.2,373.6,68.8z"/>
		<path class="st14" d="M379,71.4c1.8-0.6,2.9-1.5,2.9-3c-2.5-1.3-5.4-2.5-8.5-3.6c5.6,0.3,10.8,1.5,14.5,5.2
			C384.9,69.7,382,70.1,379,71.4z"/>
		<path class="st2" d="M371.7,61.3c1.1,0.8,1.6,2,1.7,3.5c-2.1-0.7-4.3-1.3-6.6-1.8L371.7,61.3z"/>
		<path class="st8" d="M339.9,41.6c-9.4,2.1-13.3,17.2-3.5,21.9l-1.8,0.4h-5c-0.3-6.3-0.6-17.2,1.3-21.9
			C333.9,41.1,336.9,41,339.9,41.6z"/>
		<path class="st2" d="M347.4,39.5c-2.5,0.1-5,0.9-7.5,2c-9.3,2.3-13.1,16.9-3.5,21.9l8.2-1.4l3.6-2.3
			C342.3,54.1,341,47.5,347.4,39.5z"/>
		<path class="st8" d="M350.4,38.5c-0.9,0.1-2,0.4-3,1c-6.5,7.9-5.1,14.4,0.8,20.2l4.2-2.3C347.6,52.8,346.8,46.5,350.4,38.5z"/>
		<path class="st2" d="M356,33.3c19.8-12.9,51.6-27.1,61.3-26.8c13.5,0.1,18,27.2,10,32.6c-13.2,8.7-31.6,16.1-55.7,22.2l-4.9,1.6
			c-2.8-0.6-5.9-1-9.2-1.3l-5.2-4.2c-5.1-5.2-5.5-11.6-2-19C351.8,36.6,353.6,34.8,356,33.3z"/>
		<path class="st8" d="M417.4,9.2c4.7,0.9,8.3,4.3,10.5,10.9c1.7,7.6,1.5,13.7-4,15.3c-7.2-1-10.2-8-11.7-17.1
			C412,12.3,413.7,9.2,417.4,9.2z"/>
		<path class="st3" d="M348.3,50c-0.9-7.5,24.9-19.4,58.7-32.7c-1.1,8.2,1.3,15,7.4,20.3c-24.3,11.6-41.1,16.1-50.9,20.2
			c-3.7-2.1-7.4-2.2-11.1-0.4C350.4,55.4,349.2,53.6,348.3,50z"/>
		<path class="st3" d="M344.4,44.3c-4.7,1.3-9.2,2.8-13,5.8c-1.6,6.4,0.1,10.7,5,13.3c4.1-1.9,7.8-3.5,11.8-3.7
			C343.5,55.5,341.9,50.4,344.4,44.3z"/>
		<path class="st16" d="M393,85c-0.8,3.3-1.8,6.2-3,8.3c-0.3,2.1-0.3,4.2,0,6c-1.8,0.3-3.7,0.4-5.2,0c-2,2.7-5.3,4.7-9.4,6.2
			c-1.9,0.3-3.7,0.4-5.6,0.3s-3.6-0.4-5.2-0.9c-7.4-3-13-7.4-15.8-14c1.3-3.9,4.1-7,7.9-9.6c9.2,0.8,17.3-1.3,24.8-5.4
			C389.5,76.5,393.2,79.7,393,85z"/>
		<path class="st17" d="M379.6,95.1c0.7,4.2,6.7,4.7,5.1,4.2c-2,2.7-5.3,4.7-9.4,6.2c-1.9,0.3-3.7,0.4-5.6,0.3s-3.6-0.4-5.2-0.9
			c-7.4-3-13-7.4-15.8-14c0.6-1.8,2.7-4.9,2.7-4.9S365.3,98.3,379.6,95.1z"/>
		<path class="st2" d="M379.6,117.3c1.8-4,2.1-9,1.6-14.7c-1.6,1.1-3.7,2.1-5.9,3C377,109.4,378.4,113.3,379.6,117.3z"/>
		<path class="st13" d="M326.4,100.9l-3.5-0.1l-6.1,4.6l-6.6,14.3C319.6,117,326.2,111.9,326.4,100.9z"/>
		<path class="st10" d="M336.3,89.1c-5.3,1.3-10,1.8-13.1,3.8c-1.8,1.4-3.1,3.2-3.3,5.7c0.8,2,3.2,3,8.2,2
			C333,99.2,335.6,95.3,336.3,89.1z"/>
		<path class="st10" d="M316.6,83.8c-3-3.7-1.7-7.4,3.4-10.9c5.6-2,10.4-1.6,14.5,0.9l-7.4,7.7C324.8,85.3,321.4,86,316.6,83.8z"/>
		<path class="st10" d="M309.5,71.6c4.3-5.4,9.5-8.3,15.7-8c-0.9,3.9-2.5,7.1-5.2,9.3C317.1,70.1,313.4,70.2,309.5,71.6z"/>
		<path class="st10" d="M402.7,94.2c1,3,1.6,6.1,1.6,9c0.4,1.3,1.5,2,3.3,2.1c2.3-0.7,3.8-2.1,4-4.5
			C411.8,96.6,407.9,94.9,402.7,94.2z"/>
		<path class="st10" d="M414.9,99.4c0.4-4-0.4-7.2-4.7-8.5c-4-0.2-5.7,1.5-7.5,3.3C407.9,94.2,411.9,95.7,414.9,99.4z"/>
		<path class="st10" d="M396,99.9c0.7-3.2,1.6-6.1,3.5-8.1c1.8-0.2,3.7-0.1,5,0.7l-1.7,1.6C400.7,95.3,397.6,97.6,396,99.9z"/>
		<path class="st10" d="M274.7,191.2c-5.1,2.3-8.6,5.2-9.7,9c5,2.1,10.3,2.2,16,0.9C279.7,197.3,277.6,193.9,274.7,191.2z"/>
		<path class="st10" d="M296,192.9c-6.6,1.1-11.8,3.6-15,8.2c0.9,2.3,2.7,4.4,5.4,6.3c9.2,3.2,16.5,2.8,22.3,0
			c0.6-1.3,0.3-2.9-0.4-4.5C305.6,197.5,301.7,193.8,296,192.9z"/>
		<path class="st10" d="M312.8,198.2c3.5,1.4,6.1,3.7,7.8,6.8c-3.2,1-7.2,1-11.7,0.4c-0.1-0.9-0.3-1.8-0.8-2.7L312.8,198.2z"/>
		<path class="st10" d="M370.1,189.3c-2.1,0.7-3.6,2-4.7,3.9c-1.6,2-2.7,3.9-3.2,5.8c3.2,1,11.5-0.4,16.1-3
			C377.5,193.1,375,190.7,370.1,189.3z"/>
		<path class="st10" d="M380.5,196c1.7-4.2,5.2-6.8,10.6-8l1.8,1.4c8.2,4.8,12.1,8.7,11.3,11.4C400.5,203.2,385.7,201.3,380.5,196z"
			/>
		<path class="st10" d="M362.8,190.2c-2.1,1.1-3.9,2.8-5.1,5c1.5,1.1,3.4,1.2,5.9,0.7c0.4-0.8,1.1-1.7,1.8-2.6
			C364.6,192.1,363.8,191,362.8,190.2z"/>
		<path class="st10" d="M394,186.8c3.9,2.5,5.3,4.6,4.8,6.4c-1.9-1.3-3.9-2.7-5.9-3.8C393.5,188.4,393.8,187.5,394,186.8z"/>
		<path class="st3" d="M274.7,98.5c1.8,1.1,3.3,1.1,4.1-0.1c3.2-2.1,6.4-3.3,9.6-3.3c0.8,3.3,2.8,6.7,6.6,9.9
			c-5.9-1.7-13,0.1-11.3,1.5C280,105,276.8,102.8,274.7,98.5z"/>
		<path class="st7" d="M320,72.8c4.2-1.3,8-1.8,11.1-0.7c1.3-1.9,2.7-3.5,4.3-4.8c-1.1-0.9-1.8-1.8-2-2.7c0.2-0.4,0.7-0.7,1.4-0.8
			h-5c-1.6-0.1-3.3,0.3-4.9,1C324,68.5,322.2,71,320,72.8z"/>
		<path class="st2" d="M344.9,62.1l3.6-2.3l4.2-2.3l5.2,4.2"/>
	</g>
	<g>
		<path class="st12" d="M350.2,182.8c3.9,3.5,7.8,6.1,11.8,6.5c1.1,1.2,2.4,2.5,3.4,3.9c1.5-2.4,3-3.3,4.7-3.9
			c4.1,1.2,7.1,3.2,8.3,6.7h2c1.7-3.7,4.7-6.7,10.6-8l1.8,1.4c1.1-2.1,1.9-4.9,2-8.5c1.6-2,2.1-6.3,2.6-10.6
			c-3-9.7-10.1-15.9-18.5-21C373.4,164.4,364,175.8,350.2,182.8z"/>
		<path class="st12" d="M274.7,191.2c-0.8-2.1-0.8-4.1,0-6c-2.1-4.2-3.2-9.8-2-19.5c0.2-3.3,1.6-6.4,3.4-9.4
			c11.7-5.4,17.6-11.9,19.6-19.2c21.7,2.8,29.6,19,30.3,42c-1.8,4.2-4.5,7.8-8.5,10.2c-1.8,6-5.3,10-9.4,13.4
			c-3.2-5.7-7-9.5-12.2-9.9c-6.6,1.1-11.9,3.6-15,8.2C280,197.7,278,194.5,274.7,191.2z"/>
		<path class="st12" d="M270.6,164.2c-5.6,3-11.9,5.1-18.9,6.4c-1.7,5.4,13,14.9,23,14.7c-2.6-6.4-3.2-12.9-2-19.5L270.6,164.2z"/>
		<path class="st12" d="M298.5,128.1l-2.7,9.1c-1.9,7.6-8.3,14-19.6,19.2c-2.1,3.3-3.1,6.3-3.4,9.4l-2.1-1.6
			c-3.9-2.8-6.7-6.3-8.7-10.5c3.9-4.4,8.5-8.3,14.3-11.1c4.2-3.6,7.2-8,9-13.3C289.4,129.8,293.8,129.4,298.5,128.1z"/>
		<path class="st12" d="M273,124.4c3.6,3,7.6,4.9,12.3,5c-1.6,5.1-4.8,9.5-9,13.3c-2.1,1.1-3.7,2-4.7,2.7
			C270.1,138.3,270.6,131.3,273,124.4z"/>
		<path class="st12" d="M320.4,187.3c11.5,1.4,22,0.9,29.8-4.4c12.4-6.2,22.3-16.7,28.7-33.6c5.2-14,3-28.6-3.7-43.7
			c-3.6,0.6-7.2,0.4-10.9-0.6c-13.5-1.1-21.2-8.3-24-20.5c-0.6,2.3-1.2,4.5-1.6,6.2c-0.9,1.1-1.9,1.6-2.7,1.6
			c-1.8,4.8-4.5,8.3-9.6,8.7c0,9.8-5.6,15.9-16.2,18.8c-2.8,4.7-6.5,7.8-11.6,8.5l-2.7,9.1c19.3,2.7,29.9,16,30.3,42
			C325,181.9,323.1,184.6,320.4,187.3z"/>
		<path class="st12" d="M379.6,117.3l3.4,4.6c1.3-5.6,4.4-10.6,9-15c2,3.5,5,5.9,8.7,7.5c0,20.9-7.1,35.5-11,33.4l-8.7-5.9
			C382.6,133.7,382,125.5,379.6,117.3z"/>
		<path class="st12" d="M396,99.9c2.9,8.8,16,10.5,20.6,2.2c2.6,1.5,4.3,3.3,4.6,5.7c-0.6,3.3-10.6,5.2-10.3,7.1
			c-1,27.5-17.7,40.6-21.2,32.9c5.1,2.2,11.6-17.5,11-33.4c-3.9-1.7-6.9-4.1-8.7-7.5C391.1,105.1,392.6,102.7,396,99.9z"/>
		<path class="st12" d="M430,106.9l3.2,8.1c-0.5,8.8-3.7,16.7-9,23.9c-3,2-7.1,2.8-11.6,3c-4.4,4.7-9.7,6.1-15.4,6.4
			c7.3-5.9,12.5-15.9,13.6-33.4c0.2-1.4,3.9-2.3,8.7-5.1l1.1,4.3c3.1,0.2,5.9,0.1,8.1-0.8c0.1-1.9-0.2-3.5-1-4.9L430,106.9z"/>
		<path class="st12" d="M396,99.9c1.5-2.1,3.8-4,6.8-5.7c7.1,0,11.4,3,13.9,8C412.2,110.4,398.8,108.5,396,99.9z"/>
		<path class="st12" d="M414.9,87c2.3-6.4,17.9-6.1,19.5,0c-0.2,7.8-2.2,18.6-4.3,19.8l-2.2,1.5l-1.5,5.6c-1.6,0.3-3.5,0.3-5.7,0.2
			l-1.1-4.3c0.9-0.6,1.4-1.3,1.6-2c-0.3-2.7-2.3-4.4-4.6-5.7c-0.6-1.1-1.2-2.1-1.8-2.8L414.9,87L414.9,87z"/>
		<path class="st12" d="M265.6,116.6l7.4,7.7c3.7,3.1,7.8,4.9,12.3,5c4.4,0.4,8.8,0,13.2-1.3c5.7-0.8,9.1-4.2,11.6-8.5l6.6-14.3
			l6.1-4.6c-3.3,0.8-6.3,0.8-8.7-0.4c-1.8,2.5-4,4.2-6.6,5.2C303.2,120.4,284.2,128.9,265.6,116.6z"/>
		<path class="st12" d="M263.1,113.8c11,2.4,20.7,1.8,27.7-4.4c7.2,0.2,13-0.8,16.6-3.9c-6.3,18-26.3,21.7-41.8,11.1
			C264.6,115.9,264.1,114.7,263.1,113.8z"/>
		<path class="st12" d="M282.4,82.2c-6.3-0.5-12.1-0.3-17.1,1.5c-4.6,3.8-8.2,7.6-9.5,11.1c-1.1,6.4-0.5,12,2.5,16.2
			c1.4,1.3,3,2.2,4.8,2.7c11.5,2.5,21,1.6,27.7-4.4c-3-1-5.4-2-7.1-3c-2.2,1.6-5.6,2.5-8.8,3c-6.6-5.6-6.8-14.7-4.3-21.5
			c2.9-1.8,6.1-2.3,9.4-2C280.1,84.8,281.1,83.6,282.4,82.2z"/>
		<path class="st12" d="M279.9,85.8c-3.3-0.6-6.4,0.3-9.4,2c-2.7,8.6-1.8,15.9,4.3,21.5c3.5-0.4,6.5-1.3,8.8-3
			C273.2,101.8,271.2,95.1,279.9,85.8z"/>
		<path class="st12" d="M279.9,85.8c-8.5,8.7-7.2,15.5,3.8,20.5C278.1,100.6,276.8,93.7,279.9,85.8z"/>
		<path class="st12" d="M282.4,82.2c5.7-4.1,11.8-6.6,18.3-6.8c13.3,2.4,18.6,10.2,13.5,25c-1.6,2.4-3.8,4.2-6.6,5.2
			c-3.9,3-9.5,4.2-16.6,3.9c-3-1-5.4-2-7.1-3c-5.4-5.6-7-12.4-3.8-20.5L282.4,82.2z"/>
		<path class="st12" d="M265.4,83.8c7.6-9.5,17.7-11.8,29.7-7.6c-4.9,1.4-9.2,3.3-12.6,6.1C275.9,81.5,270.2,82.2,265.4,83.8z"/>
		<path class="st12" d="M304.6,76.4c0.3-1.5,2-3.1,4.9-4.7c-1.9-0.2-3.7,0-5.2,0.6c-15.7-8.7-26.3-3.3-35,7.5
			c6.8-5.7,15.2-7.1,25.8-3.5c1.8-0.4,3.7-0.7,5.6-0.8C301.9,75.6,303.2,75.9,304.6,76.4z"/>
		<path class="st12" d="M320,72.8c-2.8-2.8-6.5-2.5-10.5-1.3c-2.5,1.3-4,2.9-4.9,4.7c9.9,3.4,14.5,10.4,9.5,24
			c3.1,1.3,5.9,1.2,8.7,0.4c-2-0.6-2.7-1.4-2.9-2.3c0.4-4.5,3.7-6.8,8.7-7.6c1.3-4.4,0.6-7.3-1.5-9.4c-2.1,3.8-5.6,4.5-10.5,2.3
			C313.5,79.5,315.3,75.9,320,72.8z"/>
		<path class="st12" d="M309.5,71.6c-1.9-0.1-3.7,0-5.2,0.6c-5.2-2.8-9.9-4.2-14.2-4.3c6.6-14.3,18.6-26.3,34.6-36.5
			c11.1-1.1,21.6-1.4,31,0c0.5,0.6,0.6,1.2,0.4,1.8c-2.5,1.8-4.9,3.5-5.7,5.2c-1.3,0.2-2.3,0.5-3,1c-2.8,0.2-5.2,0.9-7.5,2
			c-3.2-0.4-6.2-0.6-8.8,0.3c-1.7,4.9-1.8,13.3-1.3,21.9c-1.7-0.1-3.3,0.3-4.9,1c0.1-0.4,0.3-0.8,0.4-1.3
			C317.6,63.3,313.4,67.2,309.5,71.6z"/>
		<path class="st12" d="M320,72.8c3.7-1.3,7.3-1.8,11.1-0.7c0.8-1.6,2.4-3.2,4.3-4.8c-1-0.9-1.8-1.8-2-2.7c0.2-0.4,0.7-0.7,1.4-0.8
			h-5c-1.7-0.1-3.3,0.3-4.9,1C324.5,67.5,322.7,70.2,320,72.8z"/>
		<path class="st12" d="M300.2,79c6.9-0.4,11.1,2.5,12.9,8.4c1.2,8.8-2,14.3-10.6,15.6c-7.5-0.4-11.1-4.4-11.6-11.4
			C290.8,85.3,293.3,80.5,300.2,79z"/>
		<path class="st12" d="M335.3,67.4l7.7,9.7l-2.7,7.3l-1.6,6.2c-0.8,1.1-1.8,1.5-2.7,1.6l0.3-3.1l-7.7,1.8c1.2-3.7,0.8-6.8-1.5-9.4
			l7.4-7.7l-3.4-1.6C331.9,70.6,333.4,69,335.3,67.4z"/>
		<path class="st12" d="M417.5,86.5c0.8-1.2,2.7-2.1,7.1-2.1c4.5,0.1,6.6,1.1,7.5,2.5c-1.5,1.4-3.2,2.3-7.3,1.9
			C420.4,88.6,418,87.8,417.5,86.5z"/>
		<path class="st12" d="M427.8,108.5c0.7,1.3,1.1,3,1,4.9c-0.8,0.3-1.6,0.5-2.5,0.6L427.8,108.5z"/>
		<path class="st12" d="M364.5,105c-7.4-2.8-12.8-7.4-15.8-14c1.1-3.1,3.1-6.3,7.9-9.6c8.5,0.8,16.3-0.8,24.8-5.4
			c7.1,0.6,11.9,3,11.7,9.1c5.6-6.7,7.3-12.3-5.1-15c-3.3-0.3-6.3,0.2-8.8,1.4c1.8-0.6,2.7-1.6,2.9-3c-14.6-7.6-30.5-8.4-47.3-4.5
			c-0.6,0.1-1.1,0.3-1.4,0.8c0.4,1,1.1,1.9,2,2.7l7.7,9.7l-2.7,7.3C344.2,100.8,355.8,104.1,364.5,105z"/>
		<path class="st12" d="M348.9,73.8c1.8-3.5,4.7-6.1,8.4-7.9c-6.2-1.3-11.9-1.5-16.7,0C341.1,68.5,343.9,71.2,348.9,73.8z"/>
		<path class="st12" d="M379,71.4c-3.3,1.1-6.5,2-9.9,1.5c-2.2-1.5-3.3-3.4-3.9-5.4C369.9,67.3,374.4,68.7,379,71.4z"/>
		<path class="st12" d="M370.8,68c-0.2,1.7,0.4,3.3,2,4.9c2.1-0.2,4.1-0.8,6.2-1.5C376.3,69.7,373.6,68.7,370.8,68z"/>
		<path class="st12" d="M373.6,68.8c0.1,1.1,0.3,2.1,1.5,2.5c1,0,1.3-0.6,1.5-1.3C375.6,69.6,374.6,69.2,373.6,68.8z"/>
		<path class="st12" d="M379,71.4c1.8-0.6,2.9-1.5,2.9-3c-2.5-1.3-5.4-2.5-8.5-3.6c5.6,0.3,10.8,1.5,14.5,5.2
			C384.9,69.7,382,70.1,379,71.4z"/>
		<path class="st12" d="M371.7,61.3c1.1,0.8,1.6,2,1.7,3.5c-2.1-0.7-4.3-1.3-6.6-1.8L371.7,61.3z"/>
		<path class="st12" d="M339.9,41.6c-9.4,2.1-13.3,17.2-3.5,21.9l-1.8,0.4h-5c-0.3-6.3-0.6-17.2,1.3-21.9
			C333.9,41.1,336.9,41,339.9,41.6z"/>
		<path class="st12" d="M347.4,39.5c-2.5,0.1-5,0.9-7.5,2c-9.3,2.3-13.1,16.9-3.5,21.9l8.2-1.4l3.6-2.3
			C342.3,54.1,341,47.5,347.4,39.5z"/>
		<path class="st12" d="M350.4,38.5c-0.9,0.1-2,0.4-3,1c-6.5,7.9-5.1,14.4,0.8,20.2l4.2-2.3C347.6,52.8,346.8,46.5,350.4,38.5z"/>
		<path class="st12" d="M356,33.3c19.8-12.9,51.6-27.1,61.3-26.8c13.5,0.1,18,27.2,10,32.6c-13.2,8.7-31.6,16.1-55.7,22.2l-4.9,1.6
			c-2.8-0.6-5.9-1-9.2-1.3l-5.2-4.2c-5.1-5.2-5.5-11.6-2-19C351.8,36.6,353.6,34.8,356,33.3z"/>
		<path class="st12" d="M417.4,9.2c4.7,0.9,8.3,4.3,10.5,10.9c1.7,7.6,1.5,13.7-4,15.3c-7.2-1-10.2-8-11.7-17.1
			C412,12.3,413.7,9.2,417.4,9.2z"/>
		<path class="st12" d="M393,85c-0.8,3.3-1.8,6.2-3,8.3c-0.3,2.1-0.3,4.2,0,6c-1.8,0.3-3.7,0.4-5.2,0c-2,2.7-5.3,4.7-9.4,6.2
			c-1.9,0.3-3.7,0.4-5.6,0.3s-3.6-0.4-5.2-0.9c-7.4-3-13-7.4-15.8-14c1.3-3.9,4.1-7,7.9-9.6c9.2,0.8,17.3-1.3,24.8-5.4
			C389.5,76.5,393.2,79.7,393,85z"/>
		<path class="st12" d="M379.6,117.3c1.8-4,2.1-9,1.6-14.7c-1.6,1.1-3.7,2.1-5.9,3C377,109.4,378.4,113.3,379.6,117.3z"/>
		<path class="st12" d="M326.4,100.9l-3.5-0.1l-6.1,4.6l-6.6,14.3C319.6,117,326.2,111.9,326.4,100.9z"/>
		<path class="st12" d="M336.3,89.1c-5.3,1.3-10,1.8-13.1,3.8c-1.8,1.4-3.1,3.2-3.3,5.7c0.8,2,3.2,3,8.2,2
			C333,99.2,335.6,95.3,336.3,89.1z"/>
		<path class="st12" d="M316.6,83.8c-3-3.7-1.7-7.4,3.4-10.9c5.6-2,10.4-1.6,14.5,0.9l-7.4,7.7C324.8,85.3,321.4,86,316.6,83.8z"/>
		<path class="st12" d="M309.5,71.6c4.3-5.4,9.5-8.3,15.7-8c-0.9,3.9-2.5,7.1-5.2,9.3C317.1,70.1,313.4,70.2,309.5,71.6z"/>
		<path class="st12" d="M402.7,94.2c1,3,1.6,6.1,1.6,9c0.4,1.3,1.5,2,3.3,2.1c2.3-0.7,3.8-2.1,4-4.5
			C411.8,96.6,407.9,94.9,402.7,94.2z"/>
		<path class="st12" d="M414.9,99.4c0.4-4-0.4-7.2-4.7-8.5c-4-0.2-5.7,1.5-7.5,3.3C407.9,94.2,411.9,95.7,414.9,99.4z"/>
		<path class="st12" d="M396,99.9c0.7-3.2,1.6-6.1,3.5-8.1c1.8-0.2,3.7-0.1,5,0.7l-1.7,1.6C400.7,95.3,397.6,97.6,396,99.9z"/>
		<path class="st12" d="M274.7,191.2c-5.1,2.3-8.6,5.2-9.7,9c5,2.1,10.3,2.2,16,0.9C279.7,197.3,277.6,193.9,274.7,191.2z"/>
		<path class="st12" d="M296,192.9c-6.6,1.1-11.8,3.6-15,8.2c0.9,2.3,2.7,4.4,5.4,6.3c9.2,3.2,16.5,2.8,22.3,0
			c0.6-1.3,0.3-2.9-0.4-4.5C305.6,197.5,301.7,193.8,296,192.9z"/>
		<path class="st12" d="M312.8,198.2c3.5,1.4,6.1,3.7,7.8,6.8c-3.2,1-7.2,1-11.7,0.4c-0.1-0.9-0.3-1.8-0.8-2.7L312.8,198.2z"/>
		<path class="st12" d="M370.1,189.3c-2.1,0.7-3.6,2-4.7,3.9c-1.6,2-2.7,3.9-3.2,5.8c3.2,1,11.5-0.4,16.1-3
			C377.5,193.1,375,190.7,370.1,189.3z"/>
		<path class="st12" d="M380.5,196c1.7-4.2,5.2-6.8,10.6-8l1.8,1.4c8.2,4.8,12.1,8.7,11.3,11.4C400.5,203.2,385.7,201.3,380.5,196z"
			/>
		<path class="st12" d="M362.8,190.2c-2.1,1.1-3.9,2.8-5.1,5c1.5,1.1,3.4,1.2,5.9,0.7c0.4-0.8,1.1-1.7,1.8-2.6
			C364.6,192.1,363.8,191,362.8,190.2z"/>
		<path class="st12" d="M394,186.8c3.9,2.5,5.3,4.6,4.8,6.4c-1.9-1.3-3.9-2.7-5.9-3.8C393.5,188.4,393.8,187.5,394,186.8z"/>
		<path class="st12" d="M274.7,185.2c2.4-6,9.4-16.2,11.2-17.2c3.8-2.1,25,0.4,30.6,6c0.8,0.8,1.1,13.6,0.9,15.4"/>
		<path class="st12" d="M362.2,189.1c0.9,0.1,1.7-0.1,2.5-0.4c1.1-0.5,2-1.5,2.9-2.4c4.2-4.6,7.8-9.7,10.9-15.2
			c0.2-0.4,0.4-0.8,0.8-1.1s0.9-0.3,1.5-0.3c3.6-0.1,7.1-0.3,10.7-0.4c0.7,0,1.5,0,2,0.4c0.3,0.3,0.4,0.8,0.6,1.1
			c0.9,3.3,1.4,6.9,1.4,10.4"/>
		<path class="st12" d="M326,179.2c4.7,3.7,20.9,5.6,24.2,3.7"/>
		<path class="st12" d="M325.3,180.8c0.8,0.7,4,1.9,5,2.1"/>
		<path class="st12" d="M334.6,184.2c0.5,0.3,3.6,0.7,4.7,0.7"/>
		<path class="st12" d="M314.3,145.2c18.4,12.8,41.6,20,63.7,6.6"/>
		<path class="st12" d="M318.2,149.8c0.7,0.6,10,5.4,13.8,7.4"/>
		<path class="st12" d="M339.7,158.8c11.2,4,27.4,1.5,30.9-0.3"/>
		<path class="st12" d="M297.9,130.2c1,1.2,2,2.5,3,3.7c1.9,2.3,3.8,4.6,6,6.6"/>
		<path class="st12" d="M297.1,132c0.9,1.3,1.8,2.5,2.7,3.8c0.3,0.4,0.5,0.7,0.8,0.9"/>
		<path class="st12" d="M308.9,121.5c7,0,13.3-3.9,17-9.2"/>
		<path class="st12" d="M327.9,100.7c0.8,1.3,0.5,3.5-0.3,4.9"/>
		<path class="st12" d="M323.3,115.4c11.8,11.1,36.5,18.3,57.2,5.3"/>
		<path class="st12" d="M323.3,118.4c6.3,5.5,17.8,10.6,21.8,11"/>
		<path class="st12" d="M352.3,130.3c8.6,0.8,19.1-2.1,23.3-4.5"/>
		<path class="st12" d="M361.2,107.5c2.1,0.8,8-0.3,9.6-1.5"/>
		<path class="st12" d="M338.7,90.6c1.8,5.2,5.9,9.7,11.9,13.4"/>
		<path class="st12" d="M343.1,77.1c0.6,0.9,1.3,1.6,2,2"/>
		<path class="st12" d="M356.6,81.4c0.1-0.1-1.3-2-0.6-3.9"/>
		<path class="st12" d="M387.7,71.9c0.9,0.5,1.7,1.4,2.1,2.3"/>
		<path class="st12" d="M391.1,74.8c1.1,0.3,2.6,0.9,3.5,1.5c0.7,0.5,2,1.3,2.5,2.1"/>
		<path class="st12" d="M357.3,65.9c1,0.1,6.4,1.3,8,1.5"/>
		<path class="st12" d="M263.3,88.7c-1.8,1.4-0.9,20.9,2.9,22.7"/>
		<path class="st12" d="M271.4,115c-0.2,0.5,2.9,5.7,3.8,6.2"/>
		<path class="st12" d="M290.8,109.6c-0.3,0.8,5.1,7.5,7,8.9"/>
		<path class="st12" d="M269,82.7c0.3-0.5,2.1-4.4,3.2-5.2"/>
		<path class="st12" d="M288.2,78.7c0.3-1.5,1.2-2.8,2.3-3.7"/>
		<path class="st12" d="M300.6,75.4c0.1-0.4,0.3-1.3,0.6-1.6"/>
		<path class="st12" d="M304.3,72.2c-0.8,0-1.2,0.3-1.6,0.6"/>
		<path class="st12" d="M323.6,35.4c-1.8,2.7-4.9,24.4-3.6,27.3"/>
		<path class="st12" d="M383,121.9c0.9,3.2,1.5,6.6,1.4,9.9c0,1.7-0.2,3.5,0.6,5c0.8,1.5,2.3,2.5,3.8,3.3c2.2,1.1,4.3,2,6.7,2.5"/>
		<path class="st12" d="M384.6,117.1c-0.3,1.6,9.4,9.5,15.1,10.6"/>
		<path class="st12" d="M410.4,122.9c3.3-1.6,6.9-3.6,10.2-5.8"/>
		<path class="st12" d="M420.7,114.2c0.3,1.7-0.6,8.1-0.6,9"/>
		<path class="st12" d="M416.5,135c1.5-2.2,3-6.3,3.1-8.3"/>
		<path class="st12" d="M412.6,141.9c0.9-0.7,1.6-1.7,2-2.8"/>
		<path class="st12" d="M403,142.3c2.6,0.9,4.8,1.4,7.6,1.5"/>
		<path class="st12" d="M420.6,117.2c5.4,0.4,9.2-0.8,10.4-1.6"/>
		<path class="st12" d="M380.7,96.6c0.4,1.2,2.3,2.2,4,2.8"/>
	</g>
</g>
<g id="Capa_2_1_">
	<g>
		<circle class="st7" cx="-38.2" cy="94.5" r="6.2"/>
		<circle class="st4" cx="-38.2" cy="109.4" r="6.2"/>
		<circle class="st1" cx="-38.2" cy="124.9" r="6.2"/>
		<circle class="st0" cx="-38.2" cy="140.2" r="6.2"/>
		<circle class="st5" cx="-38.2" cy="156.8" r="6.2"/>
		<circle class="st6" cx="-38.2" cy="173.5" r="6.2"/>
		<circle class="st2" cx="-38.2" cy="189.1" r="6.2"/>
		<circle class="st3" cx="-38.2" cy="205.8" r="6.2"/>
	</g>
	<circle class="st18" cx="-19.8" cy="93.6" r="6.2"/>
	<circle class="st15" cx="-19.8" cy="108.4" r="6.2"/>
	<circle class="st14" cx="-19.8" cy="123.8" r="6.2"/>
	<circle class="st13" cx="-19.8" cy="139.2" r="6.2"/>
	<circle class="st16" cx="-19.8" cy="155.8" r="6.2"/>
	<circle class="st17" cx="-19.8" cy="172.5" r="6.2"/>
	<circle class="st2" cx="-19.8" cy="188.1" r="6.2"/>
	<circle class="st3" cx="-19.8" cy="204.7" r="6.2"/>
</g>
</svg>
